<?xml version="1.0" standalone="no"?>
<!DOCTYPE svg PUBLIC "-//W3C//DTD SVG 20010904//EN"
 "http://www.w3.org/TR/2001/REC-SVG-20010904/DTD/svg10.dtd">
<svg version="1.0" xmlns="http://www.w3.org/2000/svg"
 width="821.000000pt" height="821.000000pt" viewBox="0 0 821.000000 821.000000"
 preserveAspectRatio="xMidYMid meet">
<metadata>
Created by potrace 1.11, written by Peter Selinger 2001-2013
</metadata>
<g transform="translate(0.000000,821.000000) scale(0.100000,-0.100000)"
fill="#000000" stroke="none">
<path d="M440 4941 c0 -5 9 -30 20 -56 11 -26 20 -51 20 -56 0 -5 -99 -9 -235
-9 l-235 0 0 -70 0 -70 266 -2 267 -3 283 -715 c156 -393 284 -719 286 -723 2
-4 42 -7 90 -5 l87 3 -133 335 c-73 184 -222 560 -330 835 -108 275 -201 510
-206 523 -9 20 -16 22 -95 22 -47 0 -85 -4 -85 -9z"/>
<path d="M2801 4883 c-72 -99 -173 -300 -220 -438 -52 -153 -79 -288 -90 -440
-26 -374 62 -700 292 -1082 l62 -103 78 0 c42 0 77 3 77 6 0 3 -27 53 -60 112
-98 176 -173 386 -206 572 -20 121 -30 356 -22 528 15 293 86 539 228 792 33
59 60 110 60 113 0 4 -34 7 -75 7 l-75 0 -49 -67z"/>
<path d="M5240 4940 c0 -5 25 -53 55 -107 160 -287 235 -589 236 -954 0 -323
-47 -550 -169 -814 -26 -55 -63 -128 -84 -163 -21 -34 -38 -67 -38 -72 0 -6
32 -10 75 -10 l74 0 63 93 c244 362 344 817 273 1234 -39 227 -129 454 -279
706 l-58 97 -74 0 c-41 0 -74 -4 -74 -10z"/>
<path d="M7290 4104 c-184 -466 -336 -853 -338 -861 -3 -11 13 -13 83 -11 l87
3 109 275 c60 151 188 476 285 723 l177 447 249 0 248 0 0 70 0 70 -220 0
-220 0 20 50 c32 80 32 80 -62 80 l-83 0 -335 -846z"/>
<path d="M3810 4889 c0 -6 33 -46 73 -89 84 -89 130 -170 147 -257 22 -109 64
-150 129 -123 88 36 54 200 -65 316 -108 106 -284 200 -284 153z"/>
<path d="M4631 4826 c-9 -11 -8 -18 4 -30 9 -9 23 -16 31 -16 26 0 64 -47 64
-80 0 -45 -60 -195 -141 -350 -246 -474 -587 -787 -1059 -975 -108 -43 -120
-50 -120 -76 0 -24 23 -24 98 -3 147 43 378 147 507 229 169 108 363 280 488
435 96 119 219 313 296 467 l71 141 57 19 c37 11 59 24 61 35 5 24 -60 91
-136 141 -110 71 -194 96 -221 63z"/>
<path d="M3270 4735 c0 -9 31 -46 68 -83 80 -80 132 -162 173 -274 42 -115 75
-144 134 -122 22 9 45 57 45 97 0 110 -182 303 -357 378 -54 23 -63 24 -63 4z"/>
<path d="M1250 3045 l0 -65 573 2 572 3 3 63 3 62 -576 0 -575 0 0 -65z"/>
<path d="M5850 3045 l0 -65 570 0 570 0 0 65 0 65 -570 0 -570 0 0 -65z"/>
</g>
</svg>
